<?xml version="1.0" encoding="utf-8"?><svg viewBox="0 0 48 48" xmlns="http://www.w3.org/2000/svg" xmlns:xlink="http://www.w3.org/1999/xlink"><style>:root>svg{display:none}:root>svg:target{display:block}</style><svg viewBox="0 0 512 512" id="icon_address" xmlns="http://www.w3.org/2000/svg"><path fill="#D6E5E5" d="M379.1 292.6c-6.3-.5-12.6-.6-19-.4.3 7.3.9 14.5 1.3 21.8 5.2-.2 10.5-.5 15.7-.9 1.7-.1 3 .5 3.9 1.4-.4-7.3-1-14.6-1.9-21.9zm3.6 52c-.5-7.8-.8-15.6-1.3-23.5-.7 1-1.9 1.8-3.5 1.9-5.4.4-10.8.7-16.2 1 .1 7.3-.3 15-3.5 21.3 8.2-.3 16.3-.6 24.5-.7zm-31.3-30.3c-.4-7.2-1-14.5-1.3-21.7-7.1.2-15.7.4-21.6 3.7v18.2c7.6 0 15.3 0 22.9-.2zm-69-118.7c-4.2-10.6-15.8-14.5-26.4-12.5-12.1 2.2-21.3 11.3-23.5 23.4-.2 1.1-.7 2-1.3 2.6.3 6.1 1.5 12.7 6.3 16.7 6.5 5.3 16.8 5.8 24.8 4.4 8-1.4 15.7-5.6 19.2-13.2 2.9-6.6 3.6-14.6.9-21.4zm-97.6 145.3c-.1 3.7-.2 7.5-.6 11.2-.1 1.3-.4 2.9-.9 4.3 6 .8 18.1 2.3 20.6-3 2.3-4.9 2.8-10.6 2.7-16.2-6.5 3.3-14.5 3.7-21.8 3.7zm19.8-38.9h-.6c-3.5 0-7-.1-10.5.3-2.6.3-5 1.2-7.6 1.2h-1.4v.6c0 8.9.3 17.9.4 26.8 6.5.1 13.7-.1 18.9-3.6.8-.5 1.6-.8 2.4-.9-.6-8-1.6-16.2-1.6-24.4zm237.7-112.3c-16.2-6.9-29.1-20.8-41.8-32.6-15.8-14.7-34.3-26.1-52.2-38.1-18.3-12.2-35.6-25.6-52.1-40.2-13.8-12.3-28-25.7-45.5-32.7-.1.2-.1.3-.2.5.2 12.4 1.3 24.8 3.8 36.9 1.1-.1 2.3.3 3.5 1.2 27.2 23.8 59.3 41 87.1 64 15.5 12.9 30.5 26.3 46.2 39 12.1 9.8 22.9 21.6 36.4 29.5 3-3.5 5.6-7.3 8.1-11 1.9-2.8 3.7-5.7 5.2-8.7.5-1 1-2 1.3-3-.9-1.6-.7-3.4.2-4.8zM174.6 304.9c0-.4 0-.8.1-1.2-.8 0-1.6.1-2.3.1-4.4.2-9.2.2-13.4 1.3-2.1.6-2.7.6-3.2 3.1-1.7 6.9-1.1 14.4-.3 21.5 6.5.2 13.1.7 19.6 1.1v-.8c-.2-8.4-.5-16.7-.5-25.1zm-18 34.7c.6 4.3 1.3 8.7 1.9 13 4.9.7 9.7 1.6 14.6 2.4 0-1.1.3-2.2 1.1-3 .1-.4.1-.8.2-1.2.2-1.8.3-3.6.4-5.5.1-1.6.1-3.1.1-4.7-6.1-.3-12.2-.8-18.3-1z"/><path fill="#EF4823" d="M420.5 225.4v-.7c-12.7-8-23.2-19-34.8-28.4-15.6-12.6-30.5-25.9-45.9-38.7-26.9-22.3-57.7-39.3-84.4-61.7-5.5 7.5-11.7 14.3-18.2 20.9-7.4 7.5-14.6 15.5-22.3 22.7-8.4 7.8-16 16.3-23.7 24.8-7.2 7.9-15.4 15.1-22.4 23.1-11.9 13.5-24.4 29.8-40.3 39.1.6 1.9.2 4-1.7 5.6 1.4-1.2.9-1.5.7.1-.1.9-.2 1.8-.1 2.8.1 2.5.2 4.9.5 7.3.6 5.2 1.4 10.4 2 15.6.8 6.2.6 12.3.9 18.5.3 8.5.8 17 1.6 25.4.8 9.6 1.6 19.3 2.3 29 .6 1.1.8 2.4.3 3.7 1.8 24.7 3 49.4 3.2 74.1v.4h.6c.6 0 1.1.1 1.6.2.4-.1.9-.2 1.4-.2 14.9.1 29.8 1.5 44.7.2 7.4-.7 14.7-1.2 22.1-2.2 3.7-.5 7.3-1 11-1.2 1.2 0 8.6.7 8.8.4.5-.5 1-.8 1.6-1.1-.8-5.9-1.7-11.7-2.4-17.6-1.9-14.1-1.9-28.9-1.9-43.1 0-14.7.6-29.4 3.1-43.9.4-2.3 2.3-3.7 4.5-4 5.6-.8 11.2-1.2 16.8-1.4 4.7-.1 9.7.5 14.4-.2 6.3-.9 12.4-3.4 18.8-3.7 18.9-1 18.1 25.6 18.4 38.7.1 6.8-.7 13.8.1 20.6.7 5.5 1.3 11.1 1.9 16.6 1.3 12 2.5 24 3.5 36h.9c11.8.9 23.5-2.6 35-4.5 8.4-1.4 16.5-1.7 24.9-1.1 7.3.5 14.7 1 22.1.9 3.6-.1 11.7.3 13.8-2.6 1.6-2.4 4-2.3 5.9-1.1.2-.1.5-.2.7-.3 1.7-.5 3.3-.8 5-1.1 2.8-4.6 2.5-10.2 2.3-15.5-.2-6.2.5-12.2 1-18.4 1.3-15 1.8-29.9 2.2-44.9.7-29.7-.4-59.4-.5-89.1zM211.3 360.5c-5.4 7.8-19.3 6.7-27.5 5.9-10.3-.9-20.4-3.2-30.7-4.5-2.3-.3-3.8-2.4-4-4.5-1.2-9.2-2.9-18.3-3.7-27.6-.8-8.5-2-19 1.7-27.1 3.8-8.4 14-8.4 22-8.8 5.1-.3 10.1-.4 15.2-.4 2.9 0 5.6-.9 8.5-1.2 3.5-.3 7-.3 10.5-.3 3.2 0 5 2.4 5.2 4.9 2.8-.8 6.1.5 6.2 4.2.1 10.5 1.7 21 1.9 31.5 0 9.2.1 20-5.3 27.9zm46.3-119.9c-9.5.2-21.4-1.2-28.2-8.7-6.6-7.3-8.3-16.5-8.4-26 0-2 .9-3.4 2.2-4.3.7-2.7 1.6-5.3 2.8-7.7 7.2-14 22.4-22.2 38.1-21.2 15.7 1 28.3 12.5 29.7 28.4 2 22.1-14.4 39.1-36.2 39.5zm130.8 113.9c-19.5 0-39 1.5-58.5 1.5-.7 0-1.3-.1-1.8-.3-1.9 4.4-9.6 4.4-9.6-1.3v-31.6c-1.8-2-1.8-5.4 0-7.1v-18.3c0-1.7.7-2.9 1.7-3.8-.6-1.8-.1-3.9 2-5.2 8.4-5.2 20.3-5.4 29.9-5.9 10.7-.5 21.7-.7 32.3.6 2.3.3 3.7 2.4 4 4.5 2.8 20.4 3.1 41 4.5 61.5.3 2.6-1.7 5.4-4.5 5.4z"/><path fill="#D6E5E5" d="M351.9 324.3c-7.8.2-15.6.2-23.4.2v21.6h.6c6.6 0 13.2-.2 19.8-.4-.7-1.2-.8-2.7.1-4.3 2.6-4.9 3-11.1 2.9-17.1z"/><path fill="#3AB37C" d="M125 341c-1.1-.9-1.8-2.1-1.7-3.6-4.8.7-9.1 3.9-12.2 7.8-3.6 4.7-7 12.2-1.9 17 3.8 3.6.6 9.1-4.3 8.7-8.7-.8-17.7 3.7-19.9 12.7-2.3 9.4 1.5 17.9 9.2 23.6 2.9 2.2 1.8 7.5-1.6 8.5-4.3 1.2-7.8 3.3-7.3 8.1.5 5.1 3.4 9.8 6.5 13.7 5.2 6.4 17.4 17.2 26.3 11.4.7-.4 1.4-.7 2-.8-1.5-9.5-3.1-19.1-.1-28.2 1.1-3.4 3-7.2 6.9-8.1h.2c.2-.2.5-.3.8-.5 0-23.5-1.2-46.9-2.9-70.3z"/><path fill="#C56528" d="M231.3 417.6c-.1-.7-.1-1.4-.2-2.1-4.5 1.3-9.7.1-14.6.6-8 .8-15.9 2.5-23.9 2.8-16.8.7-33.4.2-50.2.1-.6 0-1.2-.1-1.7-.3-2.1.9-4.9 1.2-7.4 1.6-.9.7-2 1.2-3.1 1.3-.1.7-.8 2.1-.9 2.3-1 3.7-1.1 7.5-.7 11.3.8 6.5 2.2 12.9 2.8 19.4.4 4.1.6 8.3 3.4 11.2 25.8-.1 51.5-.9 77.3-1.7.4-5.2 1.8-10.4 6.8-13.3 3.1-1.7 6.3-3 9.6-3.8-.5-1.1-.5-2.5.5-4 4.6-6.6 3-17.7 2.3-25.4zm192.3-15.1c-3.4.1-6.7.3-9.9 1.2-1.3.4-2.5.3-3.5-.2-3.9 3.9-11.1 4.4-16.2 4.6-8.4.4-16.7-.1-25.1-.7-9.2-.6-17.9-.2-27 1.4-11.4 2.1-22.6 4.7-34.2 4.1.1 1.6.2 3.3.3 4.9.4 6.3.9 12.7.6 19-.1 1.8-.2 3.8-.6 5.6 7.4-.4 14.8-.8 22.2-1.1 5.8-.2 11.5-.5 15.8 4 4.2 4.4 3.9 10.9 4.7 16.5 8.5-.1 17-.3 25.4-.5 9.6-.2 19.3-.7 28.8-2.4 6.9-1.2 14.1-2.9 19.9-6.9.1-16.4-1-32.9-1.2-49.5z"/><path fill="#3AB37C" d="M482 420.6c-.2-4.6-.8-10.8-6.8-9.4-4.5 1.1-9.2-4.1-5.4-8 5.9-6.2 11.1-15.3 5.9-23.6-4.1-6.5-12.5-3.1-18.5-1.4-4.8 1.4-8.6-4-5.4-8 4.7-5.8 4.5-16.6.6-22.8-1.7-2.6-4.8-6-8.4-4.9-4.4 1.3-11.1 4.1-10.4 9.6.4 3.4-2.1 5.2-4.7 5.2l-.6 7.8c-.8 8.5 1 18.8-1.5 27.4h1.5c2.6 0 5.4 1.7 5.4 4.6 0 12.9.7 25.7 1.1 38.6.1 2.8.2 5.6.2 8.4.6-.3 1.4-.5 2.3-.5 14.6 0 28.9-.7 40.5-10.6 3.7-3.2 4.5-7.5 4.2-12.4z"/><path fill="#D6E5E5" d="M245.3 88.7c-2.2-10.3-3.7-20.6-4.3-31-3.5 3.1-7.2 6.2-10.4 9.7-15.2 16.8-30.5 33.5-45.7 50.3-15.4 17.2-31.5 33.7-47 50.8-12.2 13.4-27.9 23.6-38.1 38.8 2.3 2.3 4.7 4.5 7.1 6.6 3.4 2.8 6.9 4.7 10.6 7 .1 0 .1.1.2.1l.6-.3c3.7-1.9 7.1-3.9 10.4-6.5 14.9-11.8 26.7-27.3 40.1-40.7 7.7-7.7 14.8-15.8 22.2-23.8 6.8-7.4 14.2-14.3 21.1-21.6 11.6-12.3 24.2-23.6 34.5-37.1-.6-.5-1.1-1.2-1.3-2.3zm95.2 368.8c-.4-3-1.1-5.8-3.3-6-4.4-.5-8.9.1-13.3.4-14.4.8-28.9 1.5-43.3 2.5-11.9.8-23.7 1-35.7 1.3-5.4.2-11.3.2-16.5 2-4.1 1.4-5.7 3.2-6.2 6.4 27-.7 54-.7 81-1.3 11.7-.3 23.3-.4 35-.6-.2-1.9.5-3.9 2.3-4.7zm-42-17.6c.7-1.2 1.9-2.1 3.6-2.3-2.4.3-3.2 1.2-3.6 2.3z"/><path fill="#FEBF10" d="M296.2 394c-1.3-14.1-2.7-28.2-4.4-42.3-1.8-15.3 2.1-31.6-3.1-46.5-.9-2.6-1.3-4.1-3.8-4-4.5.2-8.8 1.4-13.2 2.4-11 2.6-22.5 1.6-33.8 2.5-2.2 14.9-2.6 29.9-2.3 44.9.3 13.1.4 26.4 2.3 39.4 1.5 10.4 3.2 20.9 3.7 31.4.4 7.5 1 17-2.5 24 6.4-.4 12.8-.3 19.2-.3 7.2 0 14.4-.8 21.6-1.2 6-.4 12-.8 17.9-1.2-.1-1.1.2-2.2.7-3.1 0-.1 0-.2.1-.3.1-.3.2-2.1.2-1.7.5-14.6-1.3-29.5-2.6-44zm-46.4-7.3c-2.5 1.7-5.2.7-6.9-1.3-2.5-2.9-2.3-7.8-2.3-11.4 0-2.7 1.7-5.2 4.6-5.4 2.6-.2 5.4 1.9 5.4 4.6 0 1.5 0 3 .1 4.6 0 .4.1.9.2 1.3 0 .1 0 .1.1.3 0 .1 0 .1.1.2s.1.2.2.3c1.7 1.9.6 5.4-1.5 6.8z"/><path fill="#010101" d="M490.6 411.3c-1.3-4.5-4.1-7.4-7.6-8.9 1.7-2.9 3.1-5.9 4.1-9.3 1.9-6.7-.1-13.1-3.2-19.1-4-7.8-11.9-8.7-19.7-7.6 2.3-9.5.3-20.5-5.8-27.5-5-5.7-11.9-7.5-19.1-5.4-3.3 1-6.7 2.7-9.4 5.1.3-6.3.5-12.6.8-18.9 1.2-30.5 0-61.1-.2-91.6.6-.3 1.2-.7 1.8-1.2 5.4-5.5 9.8-12.3 14-18.8 3-4.7 9.1-14 4.1-19.3 1.8-2.3 1.9-5.9-1.6-7.2-17.3-6.6-30.5-21.7-43.8-34-15.8-14.6-34.8-25.8-52.6-37.8-18.2-12.3-35.3-25.9-51.7-40.5-14.5-12.9-29.8-26.8-48.3-33.2-2.1-.7-4.1-.1-5.4 1.1-4-1.1-7 3.2-6 6.5v.1c-.1.1-.1.2-.2.3-.9 1.1-1.9 2.2-3 3.2-1.9 1.9-4 3.6-6.2 5.2-7.5 5.5-13.4 14.2-19.8 20.9-14.8 15.6-28.9 31.8-43.2 47.8-6.8 7.6-13.9 15-20.9 22.4-7.3 7.7-14.2 15.8-21.8 23.2-12.6 12.2-26.7 22.8-36.1 38-.9 1.5-.9 3-.3 4.1 0 1.2.5 2.3 1.5 3.3 6.2 6.2 12.6 12.3 20.4 16.4 1.9 1 3.2 2.6 5.4 3.1.2.1.5.1.7.1-1 6.7 1 15.1 1.8 20.5 2 14.3 1.7 28.7 2.7 43.2.8 10.5 1.6 21.1 2.3 31.6-15.8.7-30.9 19.4-26.5 34.3-9.9 1.8-18.2 7.9-21.7 18.4-3.4 10.4-.6 21.6 6.3 29.7-21.2 15.1 14.3 61.5 39.6 48.8.5 4.7 1.7 9.4 4.5 13.2 4.6 6.1 12.2 4.4 19 4.4 16.3-.1 32.6-.6 49-1.1 61.3-1.8 122.7-2 184-3.5 16.6-.4 34.6-1.5 49.6-9.3 3.1-1.6 7.2-4 7.2-7.9v-1.5c.8.5 1.8.9 2.9.9 18.2 0 40.1-2 51.2-18.7 4-6.4 3.2-16.5 1.2-23.5zM250.8 46.2c17.4 7 31.6 20.3 45.5 32.7 16.4 14.6 33.8 28 52.1 40.2 17.9 11.9 36.4 23.4 52.2 38.1 12.7 11.8 25.6 25.7 41.8 32.6-.9 1.4-1.1 3.2-.2 4.8-.2 1.1-.8 2.1-1.3 3-1.5 3-3.3 5.9-5.2 8.7-2.5 3.7-5.2 7.5-8.1 11-13.5-7.9-24.3-19.7-36.4-29.5-15.7-12.6-30.7-26.1-46.2-39-27.8-23-59.9-40.2-87.1-64-1.1-1-2.3-1.3-3.5-1.2-2.5-12.2-3.7-24.5-3.8-36.9 0-.2.1-.4.2-.5zm4.6 49.7c26.8 22.4 57.5 39.4 84.4 61.7 15.4 12.8 30.3 26.1 45.9 38.7 11.7 9.4 22.1 20.5 34.8 28.4v.7c0 29.7 1.2 59.4.4 89.1-.4 15-.9 29.9-2.2 44.9-.5 6.2-1.2 12.2-1 18.4.2 5.3.5 10.8-2.3 15.5-1.7.3-3.4.6-5 1.1-.3.1-.5.2-.7.3-1.8-1.2-4.2-1.2-5.9 1.1-2.1 3-10.2 2.5-13.8 2.6-7.4.2-14.7-.4-22.1-.9-8.5-.6-16.5-.2-24.9 1.1-11.5 1.9-23.2 5.4-35 4.5h-.9c-1-12-2.2-24-3.5-36-.6-5.6-1.2-11.1-1.9-16.6-.8-6.7 0-13.8-.1-20.6-.3-13.1.5-39.7-18.4-38.7-6.4.3-12.5 2.7-18.8 3.7-4.6.7-9.7.1-14.4.2-5.6.1-11.2.6-16.8 1.4-2.2.3-4.1 1.8-4.5 4-2.5 14.5-3.1 29.2-3.1 43.9 0 14.2 0 29 1.9 43.1.8 5.9 1.7 11.7 2.4 17.6-.6.2-1.1.6-1.6 1.1-.3.3-7.7-.4-8.8-.4-3.7.1-7.4.7-11 1.2-7.4 1-14.7 1.5-22.1 2.2-14.8 1.4-29.8-.1-44.7-.2-.5 0-1 .1-1.4.2-.5-.1-1-.2-1.6-.2h-.6v-.4c-.2-24.6-1.4-49.4-3.2-74.1.5-1.3.3-2.6-.3-3.7-.7-9.7-1.5-19.4-2.3-29-.7-8.5-1.3-16.9-1.6-25.4-.2-6.2-.1-12.3-.9-18.5-.7-5.2-1.5-10.4-2-15.6-.3-2.4-.4-4.9-.5-7.3 0-.9 0-1.9.1-2.8.2-1.6.7-1.3-.7-.1 1.9-1.6 2.2-3.7 1.7-5.6 15.9-9.4 28.3-25.6 40.3-39.1 7.1-8 15.2-15.2 22.4-23.1 7.7-8.5 15.4-17 23.7-24.8 7.7-7.2 14.9-15.2 22.3-22.7 6.7-6.6 12.9-13.4 18.3-20.9zm-13.8 326c-.5-10.5-2.2-21-3.7-31.4-1.9-13-2-26.3-2.3-39.4-.3-15 0-30.1 2.3-44.9 11.3-1 22.8 0 33.8-2.5 4.4-1 8.7-2.1 13.2-2.4 2.5-.1 2.9 1.4 3.8 4 5.2 14.9 1.3 31.2 3.1 46.5 1.7 14.1 3.1 28.2 4.4 42.3 1.3 14.5 3.2 29.4 2.5 44 0-.4-.1 1.4-.2 1.7 0 .1 0 .2-.1.3-.5 1-.8 2.1-.7 3.1-6 .4-12 .8-17.9 1.2-7.2.5-14.3 1.2-21.6 1.2-6.4 0-12.8-.1-19.2.3 3.6-7.1 3-16.6 2.6-24zm60.5 15.7c-1.7.3-2.9 1.2-3.6 2.3.4-1.1 1.2-2 3.6-2.3zM118.4 220.7l-.6.3c-.1 0-.1-.1-.2-.1-3.6-2.3-7.2-4.2-10.6-7-2.5-2.1-4.8-4.3-7.1-6.6 10.2-15.2 25.9-25.4 38.1-38.8 15.5-17.1 31.6-33.6 47-50.8 15.2-16.8 30.4-33.6 45.7-50.3 3.2-3.5 6.8-6.6 10.4-9.7.7 10.4 2.1 20.7 4.3 31 .2 1 .7 1.8 1.3 2.4-10.3 13.4-22.8 24.8-34.5 37.1-6.9 7.3-14.3 14.2-21.1 21.6-7.4 8-14.5 16.1-22.2 23.8-13.4 13.4-25.1 28.9-40.1 40.7-3.3 2.5-6.8 4.5-10.4 6.4zm8.9 191h-.2c-3.8.9-5.8 4.8-6.9 8.1-3 9.1-1.5 18.8.1 28.2-.7.1-1.3.4-2 .8-8.9 5.8-21.1-5-26.3-11.4-3.2-3.9-6-8.6-6.5-13.7-.5-4.8 3-6.9 7.3-8.1 3.5-.9 4.6-6.3 1.6-8.5-7.6-5.7-11.5-14.2-9.2-23.6 2.2-9 11.2-13.5 19.9-12.7 4.9.4 8-5 4.3-8.7-5.1-4.9-1.8-12.4 1.9-17 3-3.9 7.4-7.1 12.2-7.8-.1 1.4.6 2.7 1.7 3.6 1.6 23.4 2.9 46.8 3 70.2-.4.3-.7.4-.9.6zm84.9 52.7c-25.8.8-51.5 1.6-77.3 1.7-2.8-2.9-3.1-7.2-3.4-11.2-.6-6.5-2-12.9-2.8-19.4-.4-3.8-.3-7.6.7-11.3.1-.3.8-1.6.9-2.3 1.2-.1 2.3-.6 3.1-1.3 2.4-.5 5.2-.8 7.4-1.6.5.2 1.1.3 1.7.3 16.8.1 33.4.6 50.2-.1 8-.3 16-2 23.9-2.8 4.9-.5 10.1.7 14.6-.6.1.7.1 1.4.2 2.1.7 7.7 2.3 18.8-2.2 25.7-1 1.5-1 2.9-.5 4-3.3.8-6.5 2-9.6 3.8-5.2 2.5-6.6 7.7-6.9 13zm126-2.2l-35 .6c-27 .6-54 .6-81 1.3.5-3.2 2-5 6.2-6.4 5.2-1.8 11-1.8 16.5-2 12-.4 23.8-.5 35.7-1.3 14.4-1 28.9-1.6 43.3-2.5 4.4-.3 8.9-.8 13.3-.4 2.1.2 2.9 3 3.3 6-1.8.8-2.5 2.8-2.3 4.7zm66.9-3.2c-9.5 1.7-19.2 2.2-28.8 2.4-8.5.2-17 .4-25.4.5-.8-5.7-.5-12.2-4.7-16.5-4.3-4.5-10-4.2-15.8-4-7.4.3-14.8.6-22.2 1.1.5-1.8.6-3.8.6-5.6.3-6.3-.2-12.7-.6-19-.1-1.6-.2-3.3-.3-4.9 11.6.5 22.8-2.1 34.2-4.1 9.1-1.6 17.8-2 27-1.4 8.3.6 16.7 1.1 25.1.7 5-.2 12.3-.8 16.2-4.6 1 .4 2.2.6 3.5.2 3.2-.9 6.6-1.2 9.9-1.2.2 16.5 1.3 33 1.4 49.5-6 4-13.3 5.7-20.1 6.9zm72.6-26c-11.7 9.9-25.9 10.6-40.5 10.6-.9 0-1.7.2-2.3.5-.1-2.8-.1-5.6-.2-8.4-.4-12.9-1.1-25.7-1.1-38.6 0-2.9-2.8-4.6-5.4-4.6h-1.5c2.5-8.5.7-18.9 1.5-27.4l.6-7.8c2.6 0 5.1-1.8 4.7-5.2-.7-5.5 6-8.3 10.4-9.6 3.6-1 6.7 2.3 8.4 4.9 3.9 6.2 4.1 17-.6 22.8-3.2 4 .6 9.4 5.4 8 6-1.7 14.4-5.1 18.5 1.4 5.2 8.3.1 17.4-5.9 23.6-3.8 3.9.9 9.1 5.4 8 6-1.4 6.6 4.8 6.8 9.4.4 4.9-.4 9.2-4.2 12.4z"/><path fill="#010101" d="M293.8 201.2c-1.4-15.9-13.9-27.5-29.7-28.4-15.7-1-30.9 7.2-38.1 21.2-1.2 2.4-2.2 5.1-2.8 7.7-1.3.9-2.2 2.3-2.2 4.3.1 9.5 1.8 18.8 8.4 26 6.8 7.5 18.7 8.9 28.2 8.7 21.8-.5 38.2-17.5 36.2-39.5zm-12.4 15.7c-3.5 7.6-11.2 11.9-19.2 13.2-8 1.4-18.2.9-24.8-4.4-4.8-3.9-6-10.6-6.3-16.7.6-.6 1.1-1.5 1.3-2.6 2.2-12.1 11.4-21.2 23.5-23.4 10.7-2 22.2 1.9 26.4 12.5 2.8 6.9 2.1 14.9-.9 21.4zM393 349.2c-1.4-20.5-1.7-41.1-4.5-61.5-.3-2.1-1.7-4.3-4-4.5-10.7-1.3-21.6-1.1-32.3-.6-9.6.4-21.5.7-29.9 5.9-2.1 1.3-2.6 3.4-2 5.2-1 .9-1.7 2.2-1.7 3.8v18.3c-1.8 1.7-1.8 5.1 0 7.1v31.6c0 5.7 7.7 5.7 9.6 1.3.5.2 1.1.3 1.8.3 19.5 0 39-1.5 58.5-1.5 2.7-.1 4.7-2.9 4.5-5.4zm-42.9-56.6c.2 7.2.9 14.5 1.3 21.7-7.6.2-15.3.2-22.9.2v-17.9-.3c5.9-3.3 14.5-3.5 21.6-3.7zm-1.1 48.7c-.9 1.6-.8 3.1-.1 4.3-6.6.2-13.2.4-19.8.4h-.6v-21.6c7.8 0 15.6-.1 23.4-.2.1 6.1-.3 12.3-2.9 17.1zm30.1-48.7c.9 7.3 1.5 14.6 1.9 21.9-.9-1-2.2-1.6-3.9-1.4-5.2.4-10.5.7-15.7.9-.3-7.3-1-14.5-1.3-21.8 6.3-.2 12.7-.1 19 .4zm-20.9 52.7c3.2-6.3 3.5-14.1 3.5-21.3 5.4-.2 10.8-.5 16.2-1 1.6-.1 2.8-.9 3.5-1.9.4 7.8.8 15.6 1.3 23.5-8.2.1-16.3.4-24.5.7zm-141.8-12.6c-.2-10.5-1.8-21-1.9-31.5 0-3.7-3.4-5-6.2-4.2-.2-2.5-2-4.9-5.2-4.9-3.5 0-7 0-10.5.3-2.9.2-5.6 1.2-8.5 1.2-5.1 0-10.1.1-15.2.4-8 .4-18.2.4-22 8.8-3.7 8.1-2.4 18.5-1.7 27.1.8 9.2 2.5 18.4 3.7 27.6.3 2.1 1.8 4.3 4 4.5 10.3 1.2 20.4 3.5 30.7 4.5 8.2.7 22.1 1.9 27.5-5.9 5.6-8 5.5-18.8 5.3-27.9zm-30.5-29.2c2.6 0 5-.9 7.6-1.2 3.5-.4 7-.3 10.5-.3h.6c.1 8.2 1.1 16.4 1.6 24.5-.8.1-1.6.3-2.4.9-5.2 3.4-12.4 3.7-18.9 3.6 0-8.9-.3-17.9-.4-26.8v-.6l1.4-.1zm-11.2 41.8c-.1 1.8-.2 3.7-.4 5.5 0 .4-.1.8-.2 1.2-.8.8-1.2 1.9-1.1 3-4.9-.8-9.7-1.7-14.6-2.4-.6-4.3-1.3-8.7-1.9-13 6.1.2 12.2.7 18.3 1 0 1.5 0 3.1-.1 4.7zm.2-14.6c-6.5-.3-13.1-.9-19.6-1.1-.8-7.1-1.3-14.6.3-21.5.6-2.4 1.1-2.5 3.2-3.1 4.3-1.1 9.1-1.1 13.4-1.3.8 0 1.6-.1 2.3-.1-.1.4-.1.8-.1 1.2 0 8.4.3 16.7.4 25.1v.8zm29 22.7c-2.5 5.3-14.6 3.7-20.6 3 .5-1.5.7-3 .9-4.3.4-3.7.5-7.4.6-11.2 7.3 0 15.2-.4 21.8-3.7.1 5.6-.4 11.3-2.7 16.2zm47.3 26.3c-.1-.1-.2-.2-.2-.3 0-.1 0-.1-.1-.2 0-.1-.1-.2-.1-.3-.1-.4-.1-.9-.2-1.3-.1-1.5-.1-3-.1-4.6 0-2.7-2.8-4.8-5.4-4.6-2.9.2-4.6 2.6-4.6 5.4 0 3.6-.2 8.5 2.3 11.4 1.8 2.1 4.5 3 6.9 1.3 2.2-1.2 3.3-4.7 1.5-6.8z"/></svg><svg viewBox="0 0 48 48" id="icon_discord" xmlns="http://www.w3.org/2000/svg"><path fill="#8a4581" d="M46.21 29.95c-.98-4.98-1.38-9.94-3.32-14.62-.35-.84-.76-1.38-1.21-2.17-.26-.44-.51-.89-.84-1.27-.41-.47-.91-.84-1.42-1.19-1.91-1.33-3.96-2.54-6.22-3.1-1.03-.26-2.14-.37-3.16-.05 2.7 2.07 6.16 2.45 8.46 4.95-8.41-4.34-18.5-4.17-27 0-.15.09-.79-.26-.66-.38.69-.65 1.48-1.19 2.26-1.72 1.6-1.07 3.19-2.15 4.79-3.22-1.05-.14-2.09.2-3.09.53-2.21.74-4.49 1.51-6.27 3.02-2.22 1.89-3.39 4.63-4.28 7.41-.75 2.36-.96 5.97-1.67 8.96-.28 1.19-.72 2.34-.96 3.54-.23 1.2-.27 2.49.23 3.61.71 1.61 2.34 2.57 3.88 3.43.78.43 1.55.86 2.33 1.29.69.38 1.38.77 2.13 1.04 1.05.37 2.18.49 3.29.36.3-.04.62-.1.89-.25.54-.28.87-.85 1.17-1.38.04-.08.09-.16.08-.25-.01-.17-.19-.27-.35-.33-2.69-1.11-4.91-3.13-6.67-5.44 1.64 1.65 4.35 3.06 6.58 3.73 2.23.67 4.57.9 6.89.92 6.2.08 12.5-1.31 17.79-4.55.24-.15.56-.25.59.03-2.22 2.3-5.03 4.43-7.93 5.79.17.82.78 1.51 1.59 1.74.81.24 1.68.15 2.51 0 2.8-.5 5.48-1.7 7.72-3.47.62-.49 1.21-1.03 1.61-1.71.89-1.56.6-3.49.26-5.25zm-25.84-2.12c-.21.88-.69 1.74-1.47 2.23-1.17.74-2.85.44-3.84-.53-.96-.94-1.31-2.33-1.35-3.66-.05-1.54.4-3.3 1.8-4.03.97-.5 2.23-.35 3.13.27.9.63 1.56 1.81 1.72 2.88.13.88.21 1.95.01 2.84zm12.96.7c-.31.44-.68.86-1.15 1.15-.9.53-2.11.49-3.01-.04-1.3-.76-1.86-2.4-1.59-3.85.26-1.45.99-2.66 2.16-3.6.67-.54 1.39-.79 2.24-.58.29.07.55.21.8.37 1.04.69 1.62 1.91 1.67 3.12.04 1.22-.42 2.42-1.12 3.43z"/><path fill="#010101" d="M35.221 41.028a4.51 4.51 0 01-1.252-.166 2.78 2.78 0 01-1.938-2.126.501.501 0 01.278-.554c1.955-.914 3.954-2.234 5.801-3.815-4.675 2.37-10.172 3.574-16.044 3.507-2.719-.033-5.019-.343-7.033-.948a18.112 18.112 0 01-2.668-1.046 13.325 13.325 0 003.091 1.814c.158.065.635.263.666.767a.917.917 0 01-.145.521c-.286.513-.68 1.218-1.374 1.582-.364.191-.762.26-1.066.297a7.71 7.71 0 01-3.518-.385c-.788-.279-1.509-.682-2.206-1.07l-2.325-1.292c-1.39-.773-3.293-1.832-4.1-3.663-.473-1.069-.558-2.383-.254-3.905.14-.699.342-1.383.538-2.044.149-.503.3-1.007.421-1.517.315-1.322.532-2.782.742-4.194.265-1.782.515-3.466.942-4.806.837-2.621 2.018-5.579 4.432-7.633 1.879-1.6 4.3-2.406 6.437-3.118.999-.332 2.132-.705 3.307-.553a.5.5 0 01.214.91l-4.783 3.227c-.375.253-.752.508-1.116.774 6.776-3.034 14.28-3.578 21.098-1.651-1.23-.543-2.489-1.121-3.626-1.99a.5.5 0 01.151-.873c.964-.311 2.086-.297 3.431.036 2.522.626 4.739 2.025 6.388 3.175.521.363 1.065.76 1.507 1.272.364.422.634.893.895 1.348.138.239.271.455.399.664.301.486.585.945.841 1.563 1.452 3.499 2.064 7.204 2.656 10.787.216 1.306.433 2.617.689 3.931.374 1.906.658 3.909-.314 5.591-.459.794-1.135 1.386-1.735 1.859a17.986 17.986 0 01-7.939 3.569 8.456 8.456 0 01-1.488.155zm-2.094-2.129c.211.481.623.858 1.12 1.002.745.216 1.572.115 2.283-.012a16.985 16.985 0 007.496-3.37c.526-.415 1.114-.927 1.489-1.574.799-1.383.536-3.178.199-4.898-.26-1.323-.478-2.645-.695-3.96-.609-3.689-1.186-7.175-2.594-10.567-.226-.543-.477-.95-.768-1.421-.134-.218-.272-.442-.416-.691-.249-.434-.483-.844-.785-1.193-.365-.424-.834-.765-1.321-1.104-1.578-1.1-3.692-2.438-6.056-3.024a7.07 7.07 0 00-1.682-.23h-.007c.849.5 1.754.897 2.638 1.287 1.705.75 3.468 1.525 4.839 3.021a.5.5 0 01-.598.783c-8.097-4.177-18.022-4.176-26.551.005-.388.247-1.08-.185-1.266-.423a.564.564 0 01.04-.773c.715-.672 1.527-1.222 2.313-1.752l3.16-2.131c-.345.094-.683.206-1.005.313-2.05.683-4.374 1.456-6.104 2.931-2.223 1.891-3.333 4.688-4.127 7.176-.403 1.262-.647 2.906-.906 4.647-.213 1.434-.434 2.915-.759 4.279-.126.528-.28 1.049-.435 1.57-.189.639-.386 1.3-.517 1.954-.263 1.316-.199 2.429.188 3.306.622 1.41 2.031 2.28 3.672 3.193L8.3 38.532c.662.369 1.346.751 2.055 1.003a6.692 6.692 0 003.059.334c.236-.029.506-.074.726-.189.37-.194.634-.598.903-1.074-2.511-1.042-4.813-2.919-6.84-5.58a.5.5 0 01.752-.656c1.653 1.663 4.389 3.006 6.366 3.599 1.924.577 4.135.873 6.758.905l.479.003c6.365 0 12.246-1.546 17.037-4.483.261-.161.642-.318.982-.15.21.104.346.307.372.558a.497.497 0 01-.139.401c-2.307 2.373-5.02 4.384-7.683 5.696z"/><path fill="#010101" d="M17.392 30.977a3.871 3.871 0 01-2.678-1.084c-.929-.903-1.447-2.29-1.502-4.008-.064-2.102.708-3.778 2.067-4.485 1.099-.573 2.566-.451 3.649.304.966.676 1.738 1.967 1.923 3.213.187 1.246.188 2.236.001 3.025-.266 1.125-.864 2.028-1.687 2.544a3.348 3.348 0 01-1.773.491zm-.583-8.941c-.377 0-.746.082-1.067.25-1.498.778-1.55 2.928-1.529 3.567.032 1.014.266 2.413 1.199 3.322.869.848 2.286 1.051 3.224.462.807-.506 1.126-1.424 1.245-1.926.153-.654.148-1.546-.017-2.648v-.001c-.146-.976-.765-2.021-1.508-2.539a2.729 2.729 0 00-1.547-.487zM30.729 30.558a3.583 3.583 0 01-1.81-.485c-1.396-.821-2.151-2.618-1.836-4.37.282-1.566 1.069-2.878 2.341-3.899.857-.689 1.735-.907 2.674-.676.321.079.645.226.959.436 1.114.737 1.84 2.088 1.891 3.523.056 1.573-.627 2.896-1.208 3.727-.419.599-.834 1.009-1.307 1.292-.503.3-1.1.452-1.704.452zm.667-8.519c-.455 0-.892.178-1.345.543-1.078.866-1.745 1.976-1.983 3.298-.243 1.348.316 2.717 1.359 3.331.77.454 1.771.469 2.492.036.348-.209.666-.528 1-1.007.699-.999 1.064-2.106 1.028-3.119-.039-1.118-.593-2.162-1.443-2.726a2.099 2.099 0 00-.646-.298 1.968 1.968 0 00-.462-.058z"/></svg><svg viewBox="0 0 512 512" id="icon_github" xmlns="http://www.w3.org/2000/svg"><path fill="#283D5B" d="M346.4 231.4c-3.2-7.2-6.5-14.5-6.5-22.6 0-6.8 3.1-12.4 3.8-18.9.3-2.6.2-4.3-2.6-5-2.8-.6-5.4-.5-8.1.4-5.3 1.7-11.4 5.1-15 9.7-.2 3.5-4.1 6.8-7.7 4-12.7-9.8-31.6-10.1-46.9-9.5-14.4.6-29.8 2.3-43.5 7-.8.3-1.7.4-2.4.3-1.2 0-2.5-.5-3.6-1.5-3.8-3.7-7.7-7.3-11.9-10.5-4.4-3.3-10.1-7.8-15.8-8.1-11.2-.6-4.1 19.8-1.5 28.9 2.1 1.4 3.2 4.2 1.5 6.9-4.8 7.2-13.5 12.8-16.5 21.2-2.9 8.2-2.6 16.7-.6 25.1 1.7 7.6 4.7 14.4 9.5 20.6 3.7 4.8 9.9 12.6 16.9 11.3 1.5-.3 2.8.1 3.8.8 12.8 1.9 23.3 12 26.3 24.6 3.4 14.6-4.9 27.3-18.8 32.1-14.6 5.1-28.1.4-35-13.4-2.3-4.5-3.6-9.8-6.5-14-1.9-2.7-4.3-3.8-7.1-4 2.2 10.8 1 22.9 9.4 31.1 9.5 9.2 22.5 7 34.5 8 9 .8 15.6 5.7 13.8 15.5-1.1 6.2-3.6 12.3-5.7 18.3-2.1 6.1-2.5 11.3-2.6 17.5 1.5.2 3.1.5 4.6.7 29.4 3.7 59.2-1.1 86.4-12.5-.6-1.5-.6-3.3.7-5 1.8-2.4 1.7-6.5 1.6-9.3-.2-4.8-.9-9.7-2.1-14.4-1.9-7.8-4.1-16.4-8.6-23.1-5.3-8-12.9-15.6-14.2-25.5-1.1-8.4 3.4-21.5 13.1-22.4 1.2-.1 2.3.2 3.1.7 9.4-1.2 19-2.8 27.9-6.1 8.5-3.2 15.4-7.6 21.7-14.1 5.4-5.6 9.9-12.6 10.4-20.5.5-8.8-2.3-16.6-5.8-24.3z"/><path fill="#D6E5E5" d="M405.9 222.7c-11-49-51-88.4-98.4-103.1-22.4-6.9-46.3-9.3-69.4-5.1-20.5 3.7-39.1 12.9-56.4 24.3-18.5 12.3-36.1 27-49.3 45.1-9.3 12.8-16.7 28.3-16.2 44.2 0 .1-.1.3-.1.4-.3 5.6-.9 11.1-1.4 16.7-.5.2-.9.3-1.4.4-.6 6.6-1.6 13.3-1.8 20-.2 7-.2 14 .2 21.1.7 13.8 2.5 27.6 6.2 40.9 5.6 19.8 15 38.9 30.3 53 13.9 12.8 31.1 20.6 49.2 24.7v-.7-.7c.1-4.9.5-9.5 2.2-14.5 2-6.2 4.8-12.5 6-18.9.6-3.4.6-3.9-2.8-4.4-5.1-.7-10.4-.3-15.6-.6-6.1-.4-12.4-1.3-17.9-4-5.6-2.8-9.3-6.6-13.1-11.5-8-10.4-5-24-9.6-35.6-.9-2.3.5-5.8 3.1-6.4 10.1-2.3 19.6-.4 24.7 9.4 3.9 7.3 6 18.8 14.6 22.2 11 4.3 27.8-4.4 27-17.2-.7-11.3-9.4-20.2-20.6-21.3-.5 0-.9-.1-1.3-.3-8.4.2-15.8-5.7-21.1-12-6-7.1-10.6-15.1-13-24.1-2.8-10.6-3.7-21.3-.7-31.9 2.7-9.5 10.3-15.4 16.1-22.7-1.4-9.1-5.8-17.7-5.5-27.1.2-7.2 5.3-15.5 13.1-16.2 13.8-1.2 26.4 10.2 36 19.6 14.9-4.6 30.9-6.5 46.4-6.9 14.9-.4 32.3.4 45.7 8 4.8-5.5 12.1-9.5 18.8-11.7 7-2.3 16.7-2.1 21.5 4.3 4.6 6 1.7 14.3-.3 20.7-2.9 9.4.4 17.7 4.3 26.2 4.1 9.1 7.7 19.1 6.7 29.3-1 9.3-5 17.4-11.1 24.4-6.9 7.9-15.1 14.2-25 17.9-11.2 4.2-22.8 6.5-34.6 7.9-.9.1-1.7 0-2.4-.2-1 1.2-2.4 3.9-2.7 4.9-.7 2-.8 4.1-.4 6.2.9 4.6 3.9 8.8 6.6 12.5 4.8 6.6 9 12.9 11.8 20.7 3 8.4 5.4 17.4 6.2 26.3.4 4.4.5 9-.6 13.3 15.7-7.8 30.2-17.9 43-29.8 37.3-34.7 64.7-85.6 53-137.7z"/><path fill="#D6E5E5" d="M477.2 172.1c-21.3-43.4-61.6-77.5-104.2-99-42.7-21.7-92.2-33.1-140.1-25.5C154 60 77.6 117.9 55 195.5c0 .9-.2 1.7-.7 2.6-.4 1.4-.8 2.9-1.1 4.3-.5 1-1 2-1.4 3.1-.1.9-.3 1.9-.4 2.7-.9 4.1-2 8.2-2.7 12.3-1.4 7.7-1.1 15.7-3.8 23-.2 2.1-.5 4.2-.8 6.3v.7c-.5 4.4-.9 8.8-1.3 13.2-.8 9.2-1.2 18.4-1.1 27.6.3 18.1 2.4 36.2 6.9 53.7 8.7 33.3 25.5 64.8 52 87.3 18.2 15.5 39.5 25.7 62.4 32.3 25 7.3 51 11.4 77.1 11.5 51.5.1 103.2-13.9 145.6-43.7 78.4-55.2 137.5-166.8 91.5-260.3zM248.3 418.3c-46.2 4.2-96.9-9.2-123.2-50.1-11.4-17.7-18-38.1-21.1-58.8-1.6-10.8-2.5-21.7-2.5-32.6 0-5.7.1-11.4.4-17.1.4-6.3 1.6-12.5 1.8-18.7.1-2.4 1.6-4.1 3.5-4.8-3.5-21.2 5.1-41.9 17.8-59 15-20.3 35.2-37 56.6-50.2 17.7-10.9 36.5-19.5 57.2-22.8 23-3.7 47.1-1.8 69.4 5.1 46.6 14.5 88.1 49.6 103.6 96.9 33.6 102.4-65.6 203.2-163.5 212.1z"/><path d="M228 38.3c-8.6 1.5-17.1 3.5-25.5 5.9h124.2c-32.1-8.9-65.9-11.6-98.7-5.9z"/><path d="M476.9 151.2c-25.2-40.4-65.9-71.6-108.7-91.6-13.4-6.2-27.3-11.4-41.6-15.4H202.5C130.4 65.3 65.6 121.4 45.1 193.9c-3.3 5.5-3.8 13.1-5.2 19.2-1 4.3-1.7 8.7-2.3 13.1-.1.4-.1.9-.2 1.3-.1.3-.2.5-.2.8-.8 4.2-1.5 8.4-2.1 12.6 0 .1-.1.1-.1.2-.5 1.2-.6 2.3-.4 3.2-1 8.1-1.7 16.2-2.3 24.3-.8 11.4-.9 22.9-.3 34.3 1.3 22.3 5.6 44.5 13.3 65.5 15.3 41.8 45.5 76.5 86.1 95.3 23.1 10.6 48.8 16.7 73.9 20 25.5 3.3 51.5 3.1 77-.6 50.9-7.4 98.5-29.7 136.1-64.8 36.4-33.9 65-77.6 78.1-125.8 13.2-47.9 6.9-98.9-19.6-141.3zm-91.3 281.3c-42.4 29.8-94.1 43.8-145.6 43.7-26-.1-52-4.2-77-11.5-22.9-6.7-44.2-16.8-62.4-32.3-26.5-22.5-43.3-54-52-87.3-4.6-17.5-6.6-35.6-6.9-53.7-.2-9.2.2-18.4 1.1-27.6.4-4.4.8-8.8 1.3-13.2v-.7c.3-2.1.6-4.2.8-6.3 2.7-7.3 2.4-15.4 3.8-23 .8-4.1 1.8-8.2 2.7-12.3.2-.8.3-1.7.4-2.7.4-1 .9-2.1 1.4-3.1.4-1.4.7-2.9 1.1-4.3.5-.9.8-1.8.7-2.6 22.6-77.7 99-135.6 177.9-148 47.9-7.6 97.3 3.8 140.1 25.5 42.6 21.5 82.8 55.7 104.2 99 46 93.5-13.1 205.1-91.6 260.4z"/><path fill="#010101" d="M411.7 206.3c-15.6-47.3-57-82.4-103.6-96.9-22.3-6.9-46.3-8.8-69.4-5.1-20.7 3.3-39.5 11.8-57.2 22.8-21.4 13.2-41.5 30-56.6 50.2-12.7 17.1-21.3 37.8-17.8 59-1.8.7-3.4 2.3-3.5 4.8-.2 6.2-1.5 12.5-1.8 18.7-.3 5.7-.4 11.4-.4 17.1.1 10.9.9 21.8 2.5 32.6 3.1 20.7 9.7 41.1 21.1 58.8 26.3 40.8 77 54.2 123.2 50.1 98-9 197.2-109.8 163.5-212.1zm-112.5 184c-1.3 1.7-1.3 3.5-.7 5-27.2 11.4-57 16.2-86.4 12.5-1.5-.2-3.1-.4-4.6-.7.1-6.2.5-11.4 2.6-17.5 2-6 4.5-12.1 5.7-18.3 1.8-9.8-4.9-14.7-13.8-15.5-12.1-1-25 1.1-34.5-8-8.5-8.1-7.2-20.3-9.4-31.1 2.8.1 5.2 1.2 7.1 4 2.9 4.2 4.3 9.4 6.5 14 6.9 13.9 20.4 18.5 35 13.4 13.8-4.8 22.2-17.5 18.8-32.1-3-12.6-13.5-22.7-26.3-24.6-1-.7-2.2-1.1-3.8-.8-7 1.3-13.1-6.5-16.9-11.3-4.8-6.2-7.7-13-9.5-20.6-1.9-8.4-2.3-16.9.6-25.1 3-8.4 11.7-13.9 16.5-21.2 1.8-2.7.6-5.5-1.5-6.9-2.6-9.2-9.7-29.5 1.5-28.9 5.8.3 11.5 4.8 15.8 8.1 4.2 3.2 8.2 6.8 11.9 10.5 1.1 1.1 2.3 1.5 3.6 1.5.8.1 1.6 0 2.4-.3 13.7-4.7 29.1-6.5 43.5-7 15.3-.6 34.2-.3 46.9 9.5 3.6 2.8 7.5-.5 7.7-4 3.6-4.6 9.6-8 15-9.7 2.8-.9 5.3-1 8.1-.4 2.9.6 2.9 2.4 2.6 5-.7 6.5-3.8 12.1-3.8 18.9 0 8 3.2 15.4 6.5 22.6 3.5 7.7 6.3 15.6 5.7 24.1-.5 8-5 14.9-10.4 20.5-6.3 6.5-13.2 11-21.7 14.1-8.9 3.3-18.5 5-27.9 6.1-.8-.5-1.8-.8-3.1-.7-9.7.9-14.2 14-13.1 22.4 1.3 9.9 8.9 17.5 14.2 25.5 4.5 6.7 6.7 15.3 8.6 23.1 1.1 4.7 1.8 9.5 2.1 14.4.3 3 .4 7.1-1.5 9.5zm53.8-30c-12.8 11.9-27.4 22-43 29.8 1.1-4.3 1-8.9.6-13.3-.8-8.9-3.2-17.9-6.2-26.3-2.8-7.8-7-14-11.8-20.7-2.7-3.8-5.7-7.9-6.6-12.5-.4-2.1-.3-4.2.4-6.2.3-1 1.7-3.7 2.7-4.9.7.2 1.5.4 2.4.2 11.8-1.4 23.4-3.7 34.6-7.9 9.9-3.7 18-10 25-17.9 6.1-7 10.2-15.1 11.1-24.4 1-10.2-2.6-20.2-6.7-29.3-3.8-8.6-7.2-16.8-4.3-26.2 2-6.4 4.9-14.7.3-20.7-4.8-6.4-14.5-6.6-21.5-4.3-6.7 2.2-14 6.2-18.8 11.7-13.4-7.7-30.8-8.4-45.7-8-15.5.4-31.5 2.2-46.4 6.9-9.6-9.4-22.2-20.8-36-19.6-7.8.7-12.9 9.1-13.1 16.2-.3 9.3 4.1 18 5.5 27.1-5.8 7.3-13.4 13.3-16.1 22.7-3 10.6-2.1 21.3.7 31.9 2.4 9 7 17 13 24.1 5.3 6.3 12.7 12.2 21.1 12 .4.1.8.2 1.3.3 11.2 1.1 19.9 9.9 20.6 21.3.8 12.7-16.1 21.4-27 17.2-8.6-3.4-10.8-14.8-14.6-22.2-5.1-9.8-14.6-11.7-24.7-9.4-2.6.6-4 4-3.1 6.4 4.6 11.6 1.5 25.2 9.6 35.6 3.8 4.9 7.5 8.7 13.1 11.5 5.5 2.7 11.8 3.6 17.9 4 5.2.3 10.4-.1 15.6.6 3.4.5 3.4 1 2.8 4.4-1.2 6.4-4 12.7-6 18.9-1.6 5-2.1 9.6-2.2 14.5v1.4c-18.2-4.1-35.3-11.9-49.2-24.7-15.3-14.1-24.8-33.2-30.3-53-3.7-13.3-5.5-27.1-6.2-40.9-.4-7-.4-14-.2-21.1.2-6.7 1.2-13.3 1.8-20 .5-.1 1-.2 1.4-.4.5-5.6 1.1-11.1 1.4-16.7 0-.1 0-.3.1-.4-.5-15.9 6.9-31.3 16.2-44.2 13.1-18.1 30.7-32.8 49.3-45.1 17.2-11.4 35.9-20.6 56.4-24.3 23.2-4.2 47-1.8 69.4 5.1C355 134.2 395 173.6 406 222.6c11.6 52.2-15.8 103.1-53 137.7z"/></svg><svg viewBox="0 0 48 48" id="icon_gmail" xmlns="http://www.w3.org/2000/svg"><path fill="#d6e5e5" d="M26.198 7.106c-7.615.457-12.685-.002-19.925-.002-1.693 0-3.809.94-3.903 4.044-.255 8.417-.214 16.134-.405 24.553-.043 1.876.035 4.031 1.488 5.219.958.783 2.273.922 3.507 1.01 4.99.359 9.998.082 15 .19 8.282.179 12.561-1.048 18.807-.416 1.606.162 3.573.258 4.452-1.095.496-.762.37-1.741.397-2.649.199-6.838-.041-10.225.252-16.247.163-3.35.335-6.541.267-10.542-.044-2.624-1.75-3.763-2.761-4.237-.82-.385-2.646-.387-3.552-.407-5.102-.114-8.431.09-13.508.619"/><path fill="#bcbcbc" d="M40.767 41.704c1.606.162 3.573.258 4.452-1.095.496-.762.371-1.741.397-2.649.199-6.839-.041-10.225.252-16.247.163-3.35.335-6.541.267-10.542-.044-2.625-1.75-3.763-2.761-4.237-.82-.385-2.646-.387-3.552-.407-5.102-.114-8.431.09-13.508.619l-.116-.039c-7.615.456-12.685-.003-19.925-.003-1.693 0-3.809.941-3.903 4.044l-.011.41 5.28 6.809c1.576 2.167 4.082 5.123 5.814 6.943 4.459 4.686 9.563 10.122 14.57 15.895.213.245.425.493.637.743l.004.032c4.408-.261 7.786-.712 12.103-.276z"/><path fill="#d03827" d="M2.35 11.9c-.23 8.061-.2 15.639-.385 23.801-.043 1.876.035 4.031 1.488 5.219.958.783 2.273.922 3.507 1.01.096.007.192.006.289.013l.024-.56c-.01-2.865-.019-6.765-.029-9.63l-.013-3.862c-.008-2.356-.016-4.715.186-7.062.158-1.832.269-3.088.21-4.925L2.35 11.9zM40.038 26.943c-.436 4.447-.672 10.023-.169 14.463l.345.251c.184.016.365.028.553.047 1.606.162 3.573.258 4.452-1.095.496-.762.371-1.741.397-2.649.199-6.839-.041-10.225.252-16.247.162-3.332.332-6.509.267-10.48l-5.552 5.302c-.163 3.378-.257 7.474-.545 10.408z"/><path fill="#d03827" d="M46.061 11.391c-3.337 3.155-5.738 5.144-9.716 7.885-1.628 1.122-3.625 2.69-5.563 4.065-1.762 1.25-3.463 2.592-5.36 3.626-.583.318-1.24.628-1.888.478-.325-.076-.613-.262-.889-.449C15.742 22.33 9.562 16.871 2.614 12.292l-.138-1.844.415-1.629 1.566-1.342 1.66-.295c5.266 4.562 11.048 9.001 16.79 12.948.254.174.52.353.825.392.37.048.732-.117 1.067-.281A56.66 56.66 0 0042.172 7.063l1.558-.123 1.945 1.891.386 2.56z"/><path fill="#010101" d="M23.619 42.638c-.54 0-1.095-.005-1.67-.018-1.88-.041-3.794-.026-5.648-.013-3.072.021-6.25.047-9.376-.179-1.34-.097-2.736-.263-3.787-1.121-1.553-1.27-1.722-3.45-1.673-5.618.083-3.681.123-7.227.162-10.756.049-4.455.101-9.061.244-13.801.102-3.342 2.436-4.528 4.403-4.528 2.493 0 4.732.055 6.896.106 4.125.102 8.021.195 12.998-.104a.459.459 0 01.2.028c4.793-.497 8.211-.729 13.465-.609l.242.005c1.347.026 2.728.082 3.511.449 1.931.905 3.014 2.567 3.05 4.681.063 3.794-.084 6.814-.24 10.012l-.028.564c-.159 3.29-.159 5.826-.16 8.51 0 2.277 0 4.632-.09 7.728a15.16 15.16 0 00-.004.523c.003.771.006 1.646-.475 2.384-1.107 1.703-3.59 1.453-4.921 1.319-3.338-.336-6.089-.138-9.271.092-2.261.164-4.777.346-7.828.346zm-4.467-1.045c.939 0 1.882.007 2.818.027 3.776.086 6.766-.134 9.402-.324 3.231-.233 6.022-.435 9.443-.089 1.551.153 3.268.231 3.983-.87.317-.488.315-1.143.312-1.836-.001-.187-.001-.372.004-.556.09-3.08.09-5.428.09-7.698.001-2.696.001-5.243.162-8.559l.027-.564c.155-3.181.303-6.186.239-9.945-.037-2.194-1.366-3.273-2.474-3.792-.656-.309-2.25-.339-3.106-.355l-.242-.006c-5.237-.121-8.637.115-13.444.615a.488.488 0 01-.231-.03c-4.976.295-8.869.199-12.989.1a271.334 271.334 0 00-6.872-.106c-.773 0-3.303.257-3.403 3.56-.144 4.729-.194 9.331-.244 13.78-.039 3.533-.078 7.083-.162 10.769-.041 1.782.024 3.772 1.306 4.819.826.675 1.997.811 3.227.898 3.087.222 6.243.199 9.297.177.939-.007 1.896-.015 2.857-.015z"/><path fill="#010101" d="M23.863 21.029a1.59 1.59 0 01-.194-.012c-.431-.056-.771-.288-1.044-.476A188.457 188.457 0 016.05 7.729a.5.5 0 01.656-.756 187.684 187.684 0 0016.485 12.744c.193.133.414.283.606.308.223.03.487-.088.784-.234A56.485 56.485 0 0041.8 6.729a.5.5 0 11.746.666A57.497 57.497 0 0125.02 20.689c-.284.139-.696.34-1.157.34z"/><path fill="#010101" d="M23.88 27.984c-.151 0-.304-.017-.458-.052-.4-.093-.728-.3-1.057-.522-3.316-2.241-6.511-4.7-9.602-7.078-3.351-2.578-6.816-5.245-10.424-7.623a.5.5 0 11.551-.835c3.638 2.398 7.118 5.076 10.483 7.666 3.078 2.368 6.261 4.817 9.552 7.042.257.174.489.322.722.376.485.112 1.046-.163 1.536-.43 1.429-.779 2.779-1.762 4.085-2.712.407-.296.814-.592 1.226-.884.899-.638 1.812-1.317 2.693-1.975a102.892 102.892 0 012.876-2.095c3.812-2.626 6.158-4.53 9.655-7.835a.5.5 0 01.687.727c-3.497 3.304-5.964 5.306-9.776 7.933a99.194 99.194 0 00-2.845 2.072c-.889.662-1.807 1.347-2.713 1.989-.407.288-.812.582-1.215.876-1.332.97-2.71 1.972-4.195 2.781-.562.308-1.161.579-1.781.579z"/><path fill="#010101" d="M7.273 41.883a.5.5 0 01-.5-.498l-.042-13.492c-.008-2.34-.016-4.743.188-7.106.163-1.9.265-3.092.208-4.867a.5.5 0 01.483-.516c.252-.024.507.208.516.484.059 1.834-.051 3.114-.203 4.886-.208 2.418-.201 4.798-.193 7.1l.042 13.508a.5.5 0 01-.499.502v-.001zM39.868 41.906a.5.5 0 01-.496-.443c-.588-5.193-.146-11.357.168-14.569.204-2.07.31-4.735.413-7.312.042-1.054.083-2.093.131-3.071.014-.275.214-.509.523-.475a.5.5 0 01.475.523c-.047.976-.088 2.012-.13 3.062-.104 2.591-.21 5.271-.416 7.37-.312 3.173-.748 9.257-.17 14.358a.502.502 0 01-.498.557z"/><path fill="#010101" d="M28.66 42.448a.497.497 0 01-.397-.196c-4.259-5.563-7.954-9.281-11.527-12.875-1.234-1.242-2.445-2.46-3.646-3.722C11.468 23.95 8.936 21 7.234 18.661a.499.499 0 11.808-.588c1.455 2 3.937 4.964 5.772 6.893 1.196 1.257 2.401 2.469 3.63 3.706 3.596 3.617 7.313 7.357 11.613 12.973a.5.5 0 01-.397.803z"/><path fill="#010101" d="M8.546 42.31l-.374-.335-.321-.385c2.441-2.361 4.966-4.803 7.599-7.049.938-.801 1.879-1.688 2.876-2.627 1.889-1.779 3.841-3.619 5.871-4.936a.5.5 0 01.544.837c-1.953 1.268-3.873 3.076-5.729 4.825-1.006.948-1.957 1.844-2.913 2.659-2.609 2.228-5.122 4.659-7.553 7.011zm-.373-.335h.01-.01z"/></svg><svg viewBox="0 0 512 512" id="icon_phone" xmlns="http://www.w3.org/2000/svg"><path fill="#74CCCF" d="M311 149.5c2.7-11.3 4.1-24.2-1.6-34.4-8.2-14.8-25.3-20.9-41.6-20.8-18.5.2-36.1 6-54.4 7.2-16.4 1-32.7-1.5-49.1-1.8-13.1-.2-28.1.2-39.7 7.1-9 5.3-15.4 13.6-18.5 23.6-7.2 23.1-3.7 47.9-5.2 71.7-1 16.2-3 32.4-3.4 48.7-.3 16.1 0 32.2 1.2 48.3 1.1 15.5 1.9 31.1 3.1 46.6.9 11.5 1.9 23.2 5.1 34.4 3.1 10.8 8.1 21.3 16.8 28.7 9.9 8.4 22.6 12.2 35.5 12.6 13.5.5 26.9-1.2 40.3-2.6 12.3-1.2 24-1.3 36.2.1 20.7 2.3 52.6 8.2 65.6-13.5 11.7-19.7 9-44 8.3-66-.4-.3-.8-.7-1.2-1.1-6.3-8-10.4-19.2-13-28.9-2.9-10.8-8-20.9-11.9-31.4-4.6 1.3-9.3 2.5-13.9 4-5.4 1.8-10.1 4.7-15.3 7.1-3.7 1.7-7.6 3.2-11.2 5.2-2.1 1.2-7.2 3.3-7.8 6-.8 3.7-4.3 4.8-7.1 4-1.8-.2-3.5-1.2-4.5-3.2-3.9-8 .1-18.1 2.8-25.9 3.3-9.5 6.2-19.2 9.8-28.6 7.7-20.4 17.4-39.4 32.3-55.6 11.9-13 26-23.7 41.4-32.2-.3-.6-.4-1.4-.4-2.2v-3c-.1-1.8.5-3.1 1.4-4.1z"/><path fill="#127274" d="M342.8 363.7c-3.3-27.4-4.8-54.7-5.2-82.2-11 18.2-15.1 38.7-15.2 60.1 0 1.6-.6 3-1.6 4 .3 7.7.7 15.3.3 23.1-.5 10-1.6 20-4.7 29.6-6.4 19.8-22.2 31.6-42.8 33.5-20.9 1.9-41.5-4.5-62.3-3-22.4 1.6-46 6.9-68.2 1.5-24.3-5.9-40.7-24-47-47.9-2.9-11.3-4.3-22.9-5.2-34.5-1.2-15.3-1.9-30.7-3-46-1.1-16.1-1.7-32.1-1.4-48.3.3-16 2.1-31.8 3.2-47.8 1.7-24.3-2-50.1 4.5-73.8 2.7-9.9 7.2-19.9 14.8-27.1 9.2-8.5 20.7-13.1 33-15 27.6-4.1 55.2 3.5 82.8-1.1 27.1-4.5 58.9-12.1 82.5 7 17.6 14.3 19.1 36.3 14.2 56.8 4.4-2.2 8.8-4.3 13.3-6.3.1-.3.1-.5.2-.8 4.2-10.8 3.9-23 3.6-34.4-.1-5.6-.4-11.2-.3-16.8 0-4.9.4-9.9-.3-14.8-1.2-7.9-4.8-16-12.1-20-9.5-5.1-20.3-4.1-30.7-4.1-28.6.1-57.1 1.4-85.7 2.8-28.1 1.4-56.2 3.1-84 7.2-1.7.2-3-.2-3.9-1-15.2.5-28.2 7.3-37.3 19.9-10 13.8-14.8 31.1-17.3 47.8-2.4 16.5-2.2 32.9-.2 49.4 3.8 31.8 4 63.8 3.6 95.8-.2 16.2-.6 32.4-.6 48.5 0 15.7.7 31.3 1 47 .2 13.7-.1 27.5 1.1 41.1 1.1 12.9 3.1 27.2 10.2 38.3 12.4 19.2 35.6 24.5 57.1 25.2 28.8 1 57.7-2.1 86.6-1.6 14.2.2 28.3 1.3 42.5 2.4 11.4.9 22.9 1.6 34.2.4 10.9-1.1 22.1-3.8 30.7-10.9 9-7.4 14-18.4 15.8-29.8 3.6-24.4-3.3-49.8-6.2-74.2zm-107.1 90.6c-.5 5.7-4.9 11.1-9.8 13.6-9.8 5.1-23.2 1.9-31.5-4.8-1.8-1.5-2.3-3.3-1.8-5.1-.3-.4-.5-.8-.7-1.3-3.9-8.9-.5-17.7 9.3-20 7.8-1.9 17.7-.8 24.8 3 5.4 3 10.3 7.8 9.7 14.6z"/><path fill="#74CCCF" d="M224 451.7c-1.7-1.5-3.8-2.6-6-3.2-4.4-1.2-9.2-2-13.8-1.1-4 .8-3.5 2.3-1.9 5.9.4.9.5 1.7.5 2.5 4.7 3.2 12 5.1 17.2 3 2-1.1 6.6-4.8 4-7.1z"/><path fill="#FEBF10" d="M421.7 136.9c-11.1-12.9-21.8-28.6-37.9-35.2.7 11.8 2.4 23.6 1.6 35.5-.1 1.1-.4 2-.9 2.7-.1 1.9-1.2 3.7-3.6 4.4-10.9 3-22.1 4.9-32.8 8.7-9.6 3.4-19 7.9-28 12.7-15.6 8.3-30.2 18.4-42.2 31.4-13.8 15-23.1 32-30.4 50.9-3.6 9.4-6.5 19-9.8 28.4-1 2.9-2.5 6.4-3.5 10 4.5-2.8 9.8-4.8 14-6.7 5.6-2.5 10.6-5.8 16.4-7.8 6.8-2.3 13.9-3.9 20.7-6.1 2.8-.9 6.1.5 7 3.4 3.7 11.8 9.9 22.7 13.1 34.6 1.8 6.5 4 13.7 7.2 20.1 2.5-22.5 9.9-44.4 25.6-61.5 4.6-5 9.6-9.8 15.3-13.5 4.6-2.9 9.4-5 14.3-7.4 6.4-3.2 19.2-10.6 24.8-2.6 1.5 2.2 1.2 4.4 0 6.1.1 11.6.6 23.2 1.8 34.7 1.6-1.2 3.2-2.4 4.7-3.7 4.7-3.8 8.1-8 11.8-12.7 8.1-10.3 15.5-21.2 23-32 3.9-5.7 7.5-11.6 11.2-17.5 3.1-4.9 6.8-9.7 9.4-14.9 2.6-5.2 5.4-12.3 10.4-16.1-12.1-17.3-29.5-29.9-43.2-45.9z"/><path d="M476.5 181c-12.6-21-32.9-35.1-48.5-53.5-13.7-16.2-27.1-33.9-49-38.8-3.7-.8-6.6 2.4-6.5 5.8.1 13.4 2.9 26.7 2.1 40.1-9 2.4-18.1 4.3-27 7 1.9-8.7 2.2-17.6 2.1-26.5 0-6.2-.3-12.4-.4-18.7-.1-5.5.4-11-.2-16.5-1-9.4-4.6-18.2-11.2-25-7.1-7.2-17.7-10.1-27.5-10.4-30.7-1.1-61.6.9-92.2 2.3-30.4 1.4-60.9 3-91.1 7.3-.7-.4-1.5-.6-2.5-.6-17.8-.7-33.9 6.4-45.6 19.8-11.7 13.4-17.8 31-21.3 48.1-3.5 17-4.4 34.8-2.9 52.1 1.2 13.5 3 26.8 3.8 40.3.9 16.3 1.1 32.5 1 48.8-.2 32.4-1.4 64.7-.3 97.1.9 27.2-1.4 55.6 6.4 82 6.8 23.4 24.5 37.8 47.7 43.6 24.4 6 50.7 3 75.4 2.2 15.8-.5 31.6-.8 47.4-.3 13.1.4 26.2 1.9 39.3 2.7 22 1.3 46.9 1.1 64.9-13.6 19.3-15.8 21.9-41.7 20-64.9-1-11.7-3.1-23.2-4.8-34.8-2.3-16.2-4-32.6-5.3-48.9-1.6-20-1.7-40-1.7-60.1v-.3c5.1-5.2 11.1-9.6 17.5-12.7 3.3-1.6 6.6-3.2 9.9-4.7 1.8-.9 3.7-1.6 5.6-2.3.2 13.3.8 26.8 2.7 40-.4 1.2-.7 2.5-.7 4-.1 3.9 5.6 6.7 8.6 4.1 8.1-7 17.3-12.6 24.2-20.9 8.2-9.8 15.1-20.8 22.5-31.3s14-21.5 21.1-32.3c2.4-3.7 4.5-7.2 6.5-11.2 1.4-2.8 3.2-7.7 6.5-8.6 2.5-.6 3.6-2.5 3.7-4.4.8-1.7 1.1-3.9-.2-6zM348.9 438.2c-1.7 11.4-6.7 22.4-15.8 29.8-8.6 7.1-19.9 9.7-30.7 10.9-11.4 1.2-22.9.4-34.2-.4-14.2-1.1-28.3-2.2-42.5-2.4-28.9-.5-57.8 2.5-86.6 1.6-21.5-.7-44.7-6-57.1-25.2-7.1-11.1-9.1-25.5-10.2-38.3-1.2-13.7-.9-27.4-1.1-41.1-.3-15.7-1-31.3-1-47 0-16.2.4-32.4.6-48.5.4-32 .2-64-3.6-95.8-2-16.5-2.2-32.9.2-49.4 2.4-16.7 7.3-34 17.3-47.8 9.1-12.6 22.1-19.5 37.3-19.9.9.8 2.3 1.3 3.9 1 27.8-4.1 55.9-5.9 84-7.2 28.6-1.4 57.1-2.7 85.7-2.8 10.4 0 21.2-1 30.7 4.1 7.3 4 10.9 12.1 12.1 20 .7 4.9.4 9.8.3 14.8 0 5.6.2 11.2.3 16.8.3 11.4.6 23.6-3.6 34.4-.1.3-.2.5-.2.8-4.5 1.9-8.9 4.1-13.3 6.3 4.9-20.5 3.4-42.5-14.2-56.8-23.6-19.1-55.4-11.5-82.5-7-27.6 4.6-55.2-2.9-82.8 1.1-12.3 1.8-23.8 6.4-33 15C101.4 112 97 122 94.3 132c-6.5 23.8-2.8 49.6-4.5 73.8-1.1 15.9-2.9 31.8-3.2 47.8-.3 16.2.2 32.2 1.4 48.3 1.1 15.3 1.8 30.7 3 46 .9 11.6 2.3 23.2 5.2 34.5 6.3 23.9 22.6 42 47 47.9 22.3 5.4 45.8.1 68.2-1.5 20.8-1.5 41.4 4.8 62.3 3 20.7-1.9 36.4-13.7 42.8-33.5 3.1-9.6 4.1-19.6 4.7-29.6.4-7.8 0-15.4-.3-23.1.9-1 1.6-2.3 1.6-4 .1-21.4 4.2-41.9 15.2-60.1.4 27.5 1.9 54.8 5.2 82.2 2.8 24.4 9.7 49.8 6 74.5zM310 158.7c-15.4 8.5-29.5 19.3-41.4 32.2-14.9 16.2-24.5 35.2-32.3 55.6-3.6 9.4-6.5 19.1-9.8 28.6-2.7 7.7-6.7 17.9-2.8 25.9 1 2 2.7 3 4.5 3.2 2.8.8 6.3-.3 7.1-4 .6-2.7 5.7-4.8 7.8-6 3.6-2 7.4-3.5 11.2-5.2 5.2-2.4 9.8-5.2 15.3-7.1 4.6-1.5 9.2-2.7 13.9-4 3.9 10.5 8.9 20.5 11.9 31.4 2.6 9.7 6.8 21 13 28.9.4.5.8.8 1.2 1.1.7 22 3.5 46.3-8.3 66-12.9 21.8-44.9 15.9-65.6 13.5-12.3-1.4-24-1.3-36.2-.1-13.4 1.4-26.8 3.1-40.3 2.6-12.9-.5-25.6-4.2-35.5-12.6-8.7-7.4-13.7-18-16.8-28.7-3.2-11.1-4.2-22.9-5.1-34.4-1.2-15.5-1.9-31.1-3.1-46.6-1.1-16.1-1.5-32.1-1.2-48.3.3-16.3 2.3-32.4 3.4-48.7 1.5-23.7-2-48.6 5.2-71.7 3.1-10 9.6-18.3 18.5-23.6 11.6-6.9 26.6-7.4 39.7-7.1 16.4.3 32.7 2.8 49.1 1.8 18.3-1.2 35.9-7 54.4-7.2 16.2-.1 33.4 6 41.6 20.8 5.7 10.2 4.3 23.2 1.6 34.4-.9 1-1.5 2.3-1.5 3.9v3c0 1 .2 1.7.5 2.4zm144.4 40.4c-2.6 5.2-6.3 9.9-9.4 14.9-3.7 5.9-7.2 11.8-11.2 17.5-7.5 10.8-14.9 21.7-23 32-3.7 4.7-7.1 8.9-11.8 12.7-1.6 1.3-3.2 2.5-4.7 3.7-1.3-11.5-1.7-23.2-1.8-34.7 1.2-1.6 1.6-3.9 0-6.1-5.6-8-18.4-.6-24.8 2.6-4.8 2.4-9.7 4.5-14.3 7.4-5.7 3.6-10.8 8.5-15.3 13.5-15.7 17.1-23.1 39-25.6 61.5-3.2-6.4-5.5-13.6-7.2-20.1-3.2-11.9-9.4-22.9-13.1-34.6-.9-2.9-4.2-4.3-7-3.4-6.8 2.2-13.9 3.8-20.7 6.1-5.8 2-10.9 5.3-16.4 7.8-4.2 1.8-9.4 3.9-14 6.7 1-3.6 2.5-7.2 3.5-10 3.3-9.5 6.2-19.1 9.8-28.4 7.3-18.9 16.6-35.9 30.4-50.9 12-13 26.7-23.1 42.2-31.4 9-4.8 18.4-9.2 28-12.7 10.6-3.8 21.9-5.7 32.8-8.7 2.5-.7 3.6-2.5 3.6-4.4.5-.7.9-1.6.9-2.7.8-11.9-.9-23.6-1.6-35.5 16.1 6.6 26.8 22.3 37.9 35.2 13.8 16 31.1 28.6 43.1 46.1-5 3.6-7.7 10.7-10.3 15.9z"/><path d="M225.9 439.8c-7.1-3.8-17-4.8-24.8-3-9.8 2.3-13.2 11.1-9.3 20 .2.5.5.9.7 1.3-.4 1.7 0 3.6 1.8 5.1 8.3 6.7 21.6 9.9 31.5 4.8 5-2.6 9.3-8 9.8-13.6.7-6.9-4.2-11.7-9.7-14.6zm-6 18.8c-5.2 2.2-12.6.2-17.2-3 0-.8-.1-1.6-.5-2.5-1.6-3.6-2.1-5.1 1.9-5.9 4.6-.9 9.4-.1 13.8 1.1 2.2.6 4.3 1.7 6 3.2 2.7 2.5-1.9 6.2-4 7.1z"/></svg><svg viewBox="0 0 48 48" id="icon_telegram" xmlns="http://www.w3.org/2000/svg"><path fill="#74cccf" d="M22.5 3.5C18 4 16.525 4.799 13 7c-2.649 1.654-4.43 3.726-5.687 6.586S5.113 19.437 4.5 22.5c-.5 2.5 0 6 1 8 1.74 3.481 2.509 5.01 5 8 .582.698 2.225 1.561 2.961 2.094.941.681 1.918 1.601 3.039 1.906C21.235 43.786 25 44 30 43c4.811-.962 8.552-3.936 10.942-8.221.885-1.586 1.48-3.318 1.968-5.068.629-2.256 1.09-4.587.987-6.927-.14-3.173-1.67-8.619-3.397-11.284-3.95-6.096-10.748-7.571-18-8z"/><path fill="#bcbcbc" d="M23.171 30.204l-3.426 3.374s-.149.115-.348.12a.494.494 0 01-.219-.043l.964-5.965 3.029 2.514z"/><path fill="#010101" d="M24.173 44.128c-2.508 0-4.975-.377-7.804-1.146-.965-.262-1.782-.895-2.572-1.506a28.31 28.31 0 00-.629-.477c-.229-.166-.549-.364-.896-.58-.802-.499-1.71-1.064-2.156-1.6-2.538-3.047-3.329-4.629-5.063-8.097-1.084-2.169-1.542-5.824-1.043-8.322a43.893 43.893 0 012.845-9.017c1.297-2.95 3.166-5.114 5.88-6.809 3.456-2.158 5.044-3.054 9.709-3.573l.042-.004.042.002c6.715.397 14.151 1.685 18.391 8.227 1.822 2.812 3.339 8.409 3.477 11.534.118 2.693-.517 5.333-1.005 7.083-.605 2.171-1.226 3.768-2.013 5.178-2.553 4.574-6.453 7.503-11.281 8.468-2.114.424-4.031.639-5.924.639zm-1.66-40.127c-4.368.489-5.793 1.265-9.249 3.423-2.57 1.605-4.264 3.568-5.493 6.363a42.845 42.845 0 00-2.78 8.811c-.462 2.309-.042 5.681.957 7.678 1.698 3.396 2.473 4.946 4.937 7.903.343.412 1.215.955 1.916 1.391.37.23.71.442.955.619.216.156.434.325.655.496.712.552 1.449 1.122 2.222 1.332 4.8 1.303 8.521 1.441 13.271.492 4.531-.906 8.198-3.664 10.604-7.974.746-1.339 1.339-2.868 1.923-4.96.757-2.714 1.056-4.802.968-6.77-.132-2.997-1.578-8.353-3.316-11.034-3.99-6.154-11.116-7.384-17.57-7.77z"/><path fill="#bcbcbc" d="M20.145 27.597c-.249 1.15-.1 2.122-.431 3.251-.215.733-.503 2.437-1.095 2.919-1.393-2.156-1.758-5.241-2.709-7.449l12.488-7.993 1.013.024-.284 1.074-8.982 8.174z"/><path fill="#d6e5e5" d="M20.678 28.105c1.058 1.366 1.839 2.075 3.183 3.161 1.363 1.102 2.786 2.022 4.292 2.919.164.098.831.406 1.004.488.427.202.722-.214.797-.414.592-1.579.724-2.167 1.093-3.386.681-2.256 1.005-4.059 1.453-6.372.579-2.986 1.204-6.498 1.387-9.535.021-.35-.014-.79-.339-.921-.141-.057-.892-.023-1.042.001-3.353.555-5.975 1.721-9.166 2.893l-2.386.876c-2.897 1.063-4.01 1.808-6.906 2.871-.699.257-2.301 1.067-3.179 1.46-.68.304-.843.363-.485 1.017.215.392 1.505 1.33 1.895 1.548.897.502 1.54.795 2.518 1.109.372.119.487.193.878.185.487-.01 1.108-.512 1.532-.753 2.535-1.442 3.637-2.407 6.041-3.835 1.618-.961 3.41-2.378 5.151-3.09.336-.137.779-.252 1.013.024.264.31-.006.776-.284 1.074-.893.958-2.535 2.681-3.561 3.496-2.025 1.61-3.887 2.914-5.324 4.503-.135.149.311.521.435.681z"/><path fill="#010101" d="M29.382 35.228c-.146 0-.295-.034-.438-.103l-.129-.061c-.273-.129-.774-.365-.917-.45-1.22-.727-2.816-1.721-4.351-2.96-1.389-1.122-2.189-1.856-3.264-3.243-.022-.029-.06-.066-.101-.108-.235-.245-.725-.756-.31-1.215 1.142-1.263 2.551-2.354 4.042-3.51.437-.338.885-.686 1.342-1.049.996-.791 2.624-2.498 3.506-3.445.175-.188.249-.355.257-.421-.023.015-.15.012-.431.126-1.109.454-2.265 1.221-3.381 1.963-.583.387-1.154.767-1.705 1.094a53.934 53.934 0 00-2.732 1.751c-.95.639-1.932 1.3-3.318 2.088a6.601 6.601 0 00-.319.199c-.44.285-.94.607-1.448.619a2.29 2.29 0 01-.863-.149l-.18-.061c-.963-.309-1.646-.608-2.609-1.148-.324-.181-1.781-1.182-2.089-1.744-.161-.295-.323-.638-.206-.988.124-.367.446-.511.892-.711.354-.158.774-.359 1.21-.567.773-.369 1.572-.75 2.035-.92 1.431-.525 2.441-.981 3.419-1.422.994-.448 2.021-.912 3.487-1.449l2.387-.876c.61-.224 1.199-.448 1.776-.667 2.428-.922 4.721-1.792 7.479-2.249.01-.001.979-.105 1.312.028.328.132.707.485.65 1.416-.185 3.073-.809 6.577-1.395 9.599l-.114.59c-.388 2.01-.723 3.746-1.352 5.831l-.224.763a31.594 31.594 0 01-.878 2.655c-.092.244-.324.578-.679.722a.972.972 0 01-.361.072zm-8.555-7.699l.077.081c.07.073.131.139.169.188 1.02 1.316 1.75 1.986 3.103 3.079 1.485 1.199 3.042 2.168 4.234 2.878.129.076.583.288.83.404l.133.062c.029-.005.095-.086.114-.139.447-1.194.627-1.808.854-2.583l.229-.771c.614-2.035.929-3.666 1.326-5.731l.114-.592c.58-2.99 1.197-6.454 1.379-9.469.021-.344-.047-.441-.047-.442-.057.007-.621.025-.754.045-2.66.44-4.907 1.294-7.287 2.198-.581.22-1.174.445-1.787.67l-2.387.876c-1.432.525-2.443.981-3.42 1.422-.994.448-2.021.911-3.486 1.449-.419.154-1.231.542-1.948.884-.444.212-.872.417-1.2.563-.127.057-.25.112-.335.155.019.04.045.094.084.166.147.253 1.275 1.113 1.7 1.352.91.509 1.522.779 2.427 1.068l.199.067c.217.074.292.095.517.095.224-.005.647-.278.926-.459.132-.085.256-.165.368-.229 1.354-.77 2.277-1.391 3.254-2.049a54.797 54.797 0 012.779-1.782c.537-.319 1.094-.689 1.662-1.066 1.157-.77 2.354-1.565 3.556-2.057.883-.362 1.349-.112 1.584.162.389.458.273 1.125-.299 1.74-1.101 1.182-2.622 2.757-3.615 3.547-.46.366-.912.715-1.352 1.057-1.363 1.056-2.654 2.056-3.701 3.161z"/><path fill="#010101" d="M18.62 34.268a.502.502 0 01-.42-.229c-.887-1.373-1.364-3.059-1.824-4.688-.29-1.027-.564-1.998-.924-2.834a.5.5 0 11.918-.396c.387.897.669 1.898.969 2.958.363 1.283.735 2.603 1.305 3.725.185-.468.337-1.089.435-1.49.057-.233.108-.442.156-.605.166-.566.201-1.099.237-1.663.032-.49.065-.997.185-1.553a.5.5 0 11.978.211c-.104.483-.134.932-.165 1.407-.039.593-.079 1.207-.275 1.879a14.82 14.82 0 00-.145.562c-.284 1.159-.563 2.156-1.114 2.604a.502.502 0 01-.316.112z"/><path fill="#010101" d="M18.757 34.248a.499.499 0 01-.317-.887c.134-.109.256-.217.376-.321.301-.264.611-.536 1.025-.774.132-.075.378-.236.805-.577.118-.094.404-.398.626-.651.221-.251.373-.411.525-.571.146-.153.291-.306.502-.546a.5.5 0 01.751.66c-.222.253-.375.414-.528.575-.145.151-.29.304-.499.542-.119.135-.523.589-.754.772a7.787 7.787 0 01-.931.663c-.327.188-.576.407-.865.659-.127.112-.259.227-.401.343a.493.493 0 01-.315.113z"/></svg></svg>